<mxfile host="app.diagrams.net" modified="2024-05-20T21:46:58.684Z" agent="Mozilla/5.0 (Windows NT 10.0; Win64; x64) AppleWebKit/537.36 (KHTML, like Gecko) Chrome/124.0.0.0 Safari/537.36" etag="qMEnmBeLkbSyR2YzNS1n" version="24.4.4" type="device">
  <diagram name="Page-1" id="0783ab3e-0a74-02c8-0abd-f7b4e66b4bec">
    <mxGraphModel dx="1615" dy="815" grid="1" gridSize="10" guides="1" tooltips="1" connect="1" arrows="1" fold="1" page="1" pageScale="1" pageWidth="827" pageHeight="1169" background="none" math="0" shadow="0">
      <root>
        <mxCell id="0" />
        <mxCell id="1" parent="0" />
        <mxCell id="1c1d494c118603dd-1" value="دیاگرام فعالیت - مورد کاربری شماره 3 - ثبت نظر و امتیاز کالا" style="swimlane;html=1;childLayout=stackLayout;startSize=20;rounded=0;shadow=0;comic=0;labelBackgroundColor=none;strokeWidth=1;fontFamily=Verdana;fontSize=17;align=center;" parent="1" vertex="1">
          <mxGeometry x="14" y="20" width="800" height="1100" as="geometry" />
        </mxCell>
        <mxCell id="bYX_rBt1W14Q4xHbeTwR-1" value="مشتری" style="swimlane;startSize=20;whiteSpace=wrap;html=1;fontSize=17;" parent="1c1d494c118603dd-1" vertex="1">
          <mxGeometry y="20" width="260" height="1080" as="geometry" />
        </mxCell>
        <mxCell id="bYX_rBt1W14Q4xHbeTwR-70" style="edgeStyle=orthogonalEdgeStyle;rounded=0;orthogonalLoop=1;jettySize=auto;html=1;entryX=0.5;entryY=0;entryDx=0;entryDy=0;" parent="bYX_rBt1W14Q4xHbeTwR-1" source="bYX_rBt1W14Q4xHbeTwR-68" target="bYX_rBt1W14Q4xHbeTwR-69" edge="1">
          <mxGeometry relative="1" as="geometry" />
        </mxCell>
        <mxCell id="bYX_rBt1W14Q4xHbeTwR-68" value="" style="ellipse;fillColor=strokeColor;html=1;" parent="bYX_rBt1W14Q4xHbeTwR-1" vertex="1">
          <mxGeometry x="103" y="40" width="54" height="50" as="geometry" />
        </mxCell>
        <mxCell id="bYX_rBt1W14Q4xHbeTwR-69" value="&lt;span style=&quot;font-size: 19px;&quot;&gt;درخواست ثبت امتیاز و نظر بر روی کالا&lt;/span&gt;" style="html=1;align=center;verticalAlign=middle;rounded=1;absoluteArcSize=1;arcSize=10;dashed=0;whiteSpace=wrap;" parent="bYX_rBt1W14Q4xHbeTwR-1" vertex="1">
          <mxGeometry x="60" y="120" width="140" height="60" as="geometry" />
        </mxCell>
        <mxCell id="_GKaaEnPmd_whFGMj8a_-12" value="&lt;span style=&quot;font-size: 19px;&quot;&gt;وارد کردن امتیاز مورد نظر&lt;/span&gt;" style="html=1;align=center;verticalAlign=middle;rounded=1;absoluteArcSize=1;arcSize=10;dashed=0;whiteSpace=wrap;" vertex="1" parent="bYX_rBt1W14Q4xHbeTwR-1">
          <mxGeometry x="60" y="360" width="140" height="60" as="geometry" />
        </mxCell>
        <mxCell id="_GKaaEnPmd_whFGMj8a_-27" style="edgeStyle=orthogonalEdgeStyle;rounded=0;orthogonalLoop=1;jettySize=auto;html=1;entryX=0.5;entryY=0;entryDx=0;entryDy=0;" edge="1" parent="bYX_rBt1W14Q4xHbeTwR-1" source="_GKaaEnPmd_whFGMj8a_-23" target="_GKaaEnPmd_whFGMj8a_-26">
          <mxGeometry relative="1" as="geometry" />
        </mxCell>
        <mxCell id="_GKaaEnPmd_whFGMj8a_-23" value="&lt;span style=&quot;font-size: 19px;&quot;&gt;وارد کردن متن مورد نظر&lt;/span&gt;" style="html=1;align=center;verticalAlign=middle;rounded=1;absoluteArcSize=1;arcSize=10;dashed=0;whiteSpace=wrap;" vertex="1" parent="bYX_rBt1W14Q4xHbeTwR-1">
          <mxGeometry x="60" y="580" width="140" height="60" as="geometry" />
        </mxCell>
        <mxCell id="_GKaaEnPmd_whFGMj8a_-26" value="&lt;span style=&quot;font-size: 19px;&quot;&gt;کلیک بر روی ثبت نهایی&lt;/span&gt;" style="html=1;align=center;verticalAlign=middle;rounded=1;absoluteArcSize=1;arcSize=10;dashed=0;whiteSpace=wrap;" vertex="1" parent="bYX_rBt1W14Q4xHbeTwR-1">
          <mxGeometry x="60" y="710" width="140" height="60" as="geometry" />
        </mxCell>
        <mxCell id="bYX_rBt1W14Q4xHbeTwR-72" style="edgeStyle=orthogonalEdgeStyle;rounded=0;orthogonalLoop=1;jettySize=auto;html=1;entryX=0;entryY=0.5;entryDx=0;entryDy=0;" parent="1c1d494c118603dd-1" source="bYX_rBt1W14Q4xHbeTwR-69" target="_GKaaEnPmd_whFGMj8a_-2" edge="1">
          <mxGeometry relative="1" as="geometry">
            <mxPoint x="406" y="170" as="targetPoint" />
          </mxGeometry>
        </mxCell>
        <mxCell id="_GKaaEnPmd_whFGMj8a_-13" style="edgeStyle=orthogonalEdgeStyle;rounded=0;orthogonalLoop=1;jettySize=auto;html=1;entryX=1;entryY=0.5;entryDx=0;entryDy=0;" edge="1" parent="1c1d494c118603dd-1" source="_GKaaEnPmd_whFGMj8a_-3" target="_GKaaEnPmd_whFGMj8a_-12">
          <mxGeometry relative="1" as="geometry">
            <Array as="points">
              <mxPoint x="466" y="410" />
            </Array>
          </mxGeometry>
        </mxCell>
        <mxCell id="_GKaaEnPmd_whFGMj8a_-16" style="edgeStyle=orthogonalEdgeStyle;rounded=0;orthogonalLoop=1;jettySize=auto;html=1;entryX=0;entryY=0.5;entryDx=0;entryDy=0;" edge="1" parent="1c1d494c118603dd-1" source="_GKaaEnPmd_whFGMj8a_-12" target="_GKaaEnPmd_whFGMj8a_-15">
          <mxGeometry relative="1" as="geometry">
            <Array as="points">
              <mxPoint x="130" y="510" />
            </Array>
          </mxGeometry>
        </mxCell>
        <mxCell id="_GKaaEnPmd_whFGMj8a_-24" style="edgeStyle=orthogonalEdgeStyle;rounded=0;orthogonalLoop=1;jettySize=auto;html=1;entryX=1;entryY=0.5;entryDx=0;entryDy=0;" edge="1" parent="1c1d494c118603dd-1" source="_GKaaEnPmd_whFGMj8a_-21" target="_GKaaEnPmd_whFGMj8a_-23">
          <mxGeometry relative="1" as="geometry" />
        </mxCell>
        <mxCell id="_GKaaEnPmd_whFGMj8a_-29" style="edgeStyle=orthogonalEdgeStyle;rounded=0;orthogonalLoop=1;jettySize=auto;html=1;entryX=0;entryY=0.5;entryDx=0;entryDy=0;" edge="1" parent="1c1d494c118603dd-1" source="_GKaaEnPmd_whFGMj8a_-26" target="_GKaaEnPmd_whFGMj8a_-28">
          <mxGeometry relative="1" as="geometry" />
        </mxCell>
        <mxCell id="bYX_rBt1W14Q4xHbeTwR-3" value="سیستم" style="swimlane;startSize=20;whiteSpace=wrap;html=1;fontSize=17;" parent="1c1d494c118603dd-1" vertex="1">
          <mxGeometry x="260" y="20" width="540" height="1080" as="geometry" />
        </mxCell>
        <mxCell id="bYX_rBt1W14Q4xHbeTwR-87" value="" style="ellipse;html=1;shape=endState;fillColor=strokeColor;" parent="bYX_rBt1W14Q4xHbeTwR-3" vertex="1">
          <mxGeometry x="36" y="1010" width="59" height="60" as="geometry" />
        </mxCell>
        <mxCell id="_GKaaEnPmd_whFGMj8a_-6" style="edgeStyle=orthogonalEdgeStyle;rounded=0;orthogonalLoop=1;jettySize=auto;html=1;entryX=0.5;entryY=0;entryDx=0;entryDy=0;" edge="1" parent="bYX_rBt1W14Q4xHbeTwR-3" source="_GKaaEnPmd_whFGMj8a_-2" target="_GKaaEnPmd_whFGMj8a_-3">
          <mxGeometry relative="1" as="geometry" />
        </mxCell>
        <mxCell id="_GKaaEnPmd_whFGMj8a_-7" value="کاربر وارد حساب کاربری شده است" style="edgeLabel;html=1;align=center;verticalAlign=middle;resizable=0;points=[];fontSize=19;rotation=-90;" vertex="1" connectable="0" parent="_GKaaEnPmd_whFGMj8a_-6">
          <mxGeometry x="-0.3733" y="3" relative="1" as="geometry">
            <mxPoint x="-93" y="61" as="offset" />
          </mxGeometry>
        </mxCell>
        <mxCell id="_GKaaEnPmd_whFGMj8a_-10" style="edgeStyle=orthogonalEdgeStyle;rounded=0;orthogonalLoop=1;jettySize=auto;html=1;entryX=0;entryY=0.5;entryDx=0;entryDy=0;" edge="1" parent="bYX_rBt1W14Q4xHbeTwR-3" source="_GKaaEnPmd_whFGMj8a_-2" target="_GKaaEnPmd_whFGMj8a_-8">
          <mxGeometry relative="1" as="geometry" />
        </mxCell>
        <mxCell id="_GKaaEnPmd_whFGMj8a_-11" value="&lt;span style=&quot;font-size: 19px;&quot;&gt;کاربر وارد حساب کاربری نشده است&lt;/span&gt;" style="edgeLabel;html=1;align=center;verticalAlign=middle;resizable=0;points=[];" vertex="1" connectable="0" parent="_GKaaEnPmd_whFGMj8a_-10">
          <mxGeometry x="-0.3309" y="-3" relative="1" as="geometry">
            <mxPoint x="-37" y="-63" as="offset" />
          </mxGeometry>
        </mxCell>
        <mxCell id="_GKaaEnPmd_whFGMj8a_-2" value="" style="rhombus;whiteSpace=wrap;html=1;" vertex="1" parent="bYX_rBt1W14Q4xHbeTwR-3">
          <mxGeometry x="166" y="110" width="80" height="80" as="geometry" />
        </mxCell>
        <mxCell id="_GKaaEnPmd_whFGMj8a_-3" value="&lt;span style=&quot;font-size: 19px;&quot;&gt;درخواست امتیاز از کاربر&lt;/span&gt;" style="html=1;align=center;verticalAlign=middle;rounded=1;absoluteArcSize=1;arcSize=10;dashed=0;whiteSpace=wrap;" vertex="1" parent="bYX_rBt1W14Q4xHbeTwR-3">
          <mxGeometry x="136" y="250" width="140" height="60" as="geometry" />
        </mxCell>
        <mxCell id="_GKaaEnPmd_whFGMj8a_-42" style="edgeStyle=orthogonalEdgeStyle;rounded=0;orthogonalLoop=1;jettySize=auto;html=1;entryX=1;entryY=0.5;entryDx=0;entryDy=0;" edge="1" parent="bYX_rBt1W14Q4xHbeTwR-3" source="_GKaaEnPmd_whFGMj8a_-8" target="_GKaaEnPmd_whFGMj8a_-40">
          <mxGeometry relative="1" as="geometry">
            <mxPoint x="516" y="640" as="targetPoint" />
            <Array as="points">
              <mxPoint x="516" y="150" />
              <mxPoint x="516" y="1040" />
            </Array>
          </mxGeometry>
        </mxCell>
        <mxCell id="_GKaaEnPmd_whFGMj8a_-8" value="&lt;span style=&quot;font-size: 19px;&quot;&gt;چاپ پیام مناسب برای ورود به سیستم&lt;/span&gt;" style="html=1;align=center;verticalAlign=middle;rounded=1;absoluteArcSize=1;arcSize=10;dashed=0;whiteSpace=wrap;" vertex="1" parent="bYX_rBt1W14Q4xHbeTwR-3">
          <mxGeometry x="356" y="120" width="140" height="60" as="geometry" />
        </mxCell>
        <mxCell id="_GKaaEnPmd_whFGMj8a_-18" style="edgeStyle=orthogonalEdgeStyle;rounded=0;orthogonalLoop=1;jettySize=auto;html=1;entryX=0.5;entryY=1;entryDx=0;entryDy=0;" edge="1" parent="bYX_rBt1W14Q4xHbeTwR-3" source="_GKaaEnPmd_whFGMj8a_-15" target="_GKaaEnPmd_whFGMj8a_-17">
          <mxGeometry relative="1" as="geometry" />
        </mxCell>
        <mxCell id="_GKaaEnPmd_whFGMj8a_-20" value="امتیاز وارد شده خارج از محدوده است" style="edgeLabel;html=1;align=center;verticalAlign=middle;resizable=0;points=[];fontSize=17;" vertex="1" connectable="0" parent="_GKaaEnPmd_whFGMj8a_-18">
          <mxGeometry x="-0.6429" relative="1" as="geometry">
            <mxPoint x="10" y="-50" as="offset" />
          </mxGeometry>
        </mxCell>
        <mxCell id="_GKaaEnPmd_whFGMj8a_-22" style="edgeStyle=orthogonalEdgeStyle;rounded=0;orthogonalLoop=1;jettySize=auto;html=1;entryX=0.5;entryY=0;entryDx=0;entryDy=0;" edge="1" parent="bYX_rBt1W14Q4xHbeTwR-3" source="_GKaaEnPmd_whFGMj8a_-15" target="_GKaaEnPmd_whFGMj8a_-21">
          <mxGeometry relative="1" as="geometry" />
        </mxCell>
        <mxCell id="_GKaaEnPmd_whFGMj8a_-15" value="" style="rhombus;whiteSpace=wrap;html=1;" vertex="1" parent="bYX_rBt1W14Q4xHbeTwR-3">
          <mxGeometry x="166" y="450" width="80" height="80" as="geometry" />
        </mxCell>
        <mxCell id="_GKaaEnPmd_whFGMj8a_-17" value="&lt;span style=&quot;font-size: 19px;&quot;&gt;چاپ خطای بازه امتیازی رعایت نشده&lt;/span&gt;" style="html=1;align=center;verticalAlign=middle;rounded=1;absoluteArcSize=1;arcSize=10;dashed=0;whiteSpace=wrap;" vertex="1" parent="bYX_rBt1W14Q4xHbeTwR-3">
          <mxGeometry x="356" y="330" width="140" height="60" as="geometry" />
        </mxCell>
        <mxCell id="_GKaaEnPmd_whFGMj8a_-19" style="edgeStyle=orthogonalEdgeStyle;rounded=0;orthogonalLoop=1;jettySize=auto;html=1;entryX=1.006;entryY=0.387;entryDx=0;entryDy=0;entryPerimeter=0;" edge="1" parent="bYX_rBt1W14Q4xHbeTwR-3" source="_GKaaEnPmd_whFGMj8a_-17" target="_GKaaEnPmd_whFGMj8a_-3">
          <mxGeometry relative="1" as="geometry" />
        </mxCell>
        <mxCell id="_GKaaEnPmd_whFGMj8a_-21" value="&lt;span style=&quot;font-size: 19px;&quot;&gt;درخواست متن نظر&lt;/span&gt;" style="html=1;align=center;verticalAlign=middle;rounded=1;absoluteArcSize=1;arcSize=10;dashed=0;whiteSpace=wrap;" vertex="1" parent="bYX_rBt1W14Q4xHbeTwR-3">
          <mxGeometry x="136" y="580" width="140" height="60" as="geometry" />
        </mxCell>
        <mxCell id="_GKaaEnPmd_whFGMj8a_-31" style="edgeStyle=orthogonalEdgeStyle;rounded=0;orthogonalLoop=1;jettySize=auto;html=1;entryX=0.5;entryY=1;entryDx=0;entryDy=0;" edge="1" parent="bYX_rBt1W14Q4xHbeTwR-3" source="_GKaaEnPmd_whFGMj8a_-28" target="_GKaaEnPmd_whFGMj8a_-30">
          <mxGeometry relative="1" as="geometry" />
        </mxCell>
        <mxCell id="_GKaaEnPmd_whFGMj8a_-32" value="&lt;span style=&quot;font-size: 17px;&quot;&gt;کاربر منتقد ویژه است&lt;/span&gt;" style="edgeLabel;html=1;align=center;verticalAlign=middle;resizable=0;points=[];" vertex="1" connectable="0" parent="_GKaaEnPmd_whFGMj8a_-31">
          <mxGeometry x="-0.4065" y="3" relative="1" as="geometry">
            <mxPoint x="35" y="13" as="offset" />
          </mxGeometry>
        </mxCell>
        <mxCell id="_GKaaEnPmd_whFGMj8a_-34" style="edgeStyle=orthogonalEdgeStyle;rounded=0;orthogonalLoop=1;jettySize=auto;html=1;entryX=0;entryY=0.5;entryDx=0;entryDy=0;" edge="1" parent="bYX_rBt1W14Q4xHbeTwR-3" source="_GKaaEnPmd_whFGMj8a_-28" target="_GKaaEnPmd_whFGMj8a_-33">
          <mxGeometry relative="1" as="geometry">
            <mxPoint x="206" y="839.9999999999998" as="targetPoint" />
            <Array as="points">
              <mxPoint x="206" y="840" />
            </Array>
          </mxGeometry>
        </mxCell>
        <mxCell id="_GKaaEnPmd_whFGMj8a_-28" value="" style="rhombus;whiteSpace=wrap;html=1;" vertex="1" parent="bYX_rBt1W14Q4xHbeTwR-3">
          <mxGeometry x="166" y="700" width="80" height="80" as="geometry" />
        </mxCell>
        <mxCell id="_GKaaEnPmd_whFGMj8a_-36" style="edgeStyle=orthogonalEdgeStyle;rounded=0;orthogonalLoop=1;jettySize=auto;html=1;entryX=1;entryY=0.5;entryDx=0;entryDy=0;" edge="1" parent="bYX_rBt1W14Q4xHbeTwR-3" source="_GKaaEnPmd_whFGMj8a_-30" target="_GKaaEnPmd_whFGMj8a_-33">
          <mxGeometry relative="1" as="geometry">
            <Array as="points">
              <mxPoint x="466" y="690" />
              <mxPoint x="466" y="840" />
            </Array>
          </mxGeometry>
        </mxCell>
        <mxCell id="_GKaaEnPmd_whFGMj8a_-30" value="&lt;span style=&quot;font-size: 19px;&quot;&gt;قرار دادن نماد ویژه برای منتقدان&lt;/span&gt;" style="html=1;align=center;verticalAlign=middle;rounded=1;absoluteArcSize=1;arcSize=10;dashed=0;whiteSpace=wrap;" vertex="1" parent="bYX_rBt1W14Q4xHbeTwR-3">
          <mxGeometry x="306" y="660" width="140" height="60" as="geometry" />
        </mxCell>
        <mxCell id="_GKaaEnPmd_whFGMj8a_-38" style="edgeStyle=orthogonalEdgeStyle;rounded=0;orthogonalLoop=1;jettySize=auto;html=1;entryX=0.5;entryY=0;entryDx=0;entryDy=0;" edge="1" parent="bYX_rBt1W14Q4xHbeTwR-3" source="_GKaaEnPmd_whFGMj8a_-33" target="_GKaaEnPmd_whFGMj8a_-37">
          <mxGeometry relative="1" as="geometry" />
        </mxCell>
        <mxCell id="_GKaaEnPmd_whFGMj8a_-33" value="" style="rhombus;whiteSpace=wrap;html=1;" vertex="1" parent="bYX_rBt1W14Q4xHbeTwR-3">
          <mxGeometry x="256" y="800" width="80" height="80" as="geometry" />
        </mxCell>
        <mxCell id="_GKaaEnPmd_whFGMj8a_-41" style="edgeStyle=orthogonalEdgeStyle;rounded=0;orthogonalLoop=1;jettySize=auto;html=1;entryX=0.5;entryY=0;entryDx=0;entryDy=0;" edge="1" parent="bYX_rBt1W14Q4xHbeTwR-3" source="_GKaaEnPmd_whFGMj8a_-37" target="_GKaaEnPmd_whFGMj8a_-40">
          <mxGeometry relative="1" as="geometry" />
        </mxCell>
        <mxCell id="_GKaaEnPmd_whFGMj8a_-37" value="&lt;span style=&quot;font-size: 19px;&quot;&gt;به‌روزرسانی پایگاه داده&lt;/span&gt;" style="html=1;align=center;verticalAlign=middle;rounded=1;absoluteArcSize=1;arcSize=10;dashed=0;whiteSpace=wrap;" vertex="1" parent="bYX_rBt1W14Q4xHbeTwR-3">
          <mxGeometry x="226" y="910" width="140" height="60" as="geometry" />
        </mxCell>
        <mxCell id="_GKaaEnPmd_whFGMj8a_-43" style="edgeStyle=orthogonalEdgeStyle;rounded=0;orthogonalLoop=1;jettySize=auto;html=1;entryX=1;entryY=0.5;entryDx=0;entryDy=0;" edge="1" parent="bYX_rBt1W14Q4xHbeTwR-3" source="_GKaaEnPmd_whFGMj8a_-40" target="bYX_rBt1W14Q4xHbeTwR-87">
          <mxGeometry relative="1" as="geometry" />
        </mxCell>
        <mxCell id="_GKaaEnPmd_whFGMj8a_-40" value="" style="rhombus;whiteSpace=wrap;html=1;" vertex="1" parent="bYX_rBt1W14Q4xHbeTwR-3">
          <mxGeometry x="256" y="1000" width="80" height="80" as="geometry" />
        </mxCell>
      </root>
    </mxGraphModel>
  </diagram>
</mxfile>
